<svg height="103" viewBox="0 0 180 103" width="180" xmlns="http://www.w3.org/2000/svg" xmlns:xlink="http://www.w3.org/1999/xlink"><linearGradient id="a" x1="50%" x2="50%" y1="0%" y2="100%"><stop offset="0" stop-color="#98aeca"/><stop offset="1" stop-color="#fff"/></linearGradient><g fill="none" fill-rule="evenodd"><path d="m28.800018 58h126.200083v21.8h-126.200083z" fill="url(#a)"/><g fill-rule="nonzero"><path d="m108.184292 69.0429285c.015942.0489732.263699.1387573.456326.1714061 1.37894.3618572 2.75788.3455328 4.13682-.0489732.229165-3.1899047.383882-6.4508051.464159-9.7827013.007772-.3229683-5.525132-.1633987-5.50868.1926808.290871 6.280828.441318 9.4366905.451375 9.4675876zm-39.9972367-8.0520029c.2231811 5.1303915.3347716 7.8375186.3347716 8.1213815 0 .0979464 1.1225477.4570828 1.2514082.4897316 1.1863136.0979463 2.2444311-.0006802 3.1743522-.2958795.1288605-.0326488.1932908-.0986265.1932908-.1979331 0-.4598036.3048812-7.1099499.3367643-8.7192622 0-.0666973-1.7635291.1339566-5.2905871.6019617zm12.9863487 5.6155885c0 .327848.1594151 2.2833733.1912981 2.5119147 0 .0979463 1.120555.4897315 1.2494155.4897315 1.1863137.1319555 2.2125481.033329 3.0787032-.2958794.1607435-.0326488.2411153-.0986265.2411153-.1979332.063766-.919607.095649-1.6093123.095649-2.0691158.1288605-2.8241186.2092322-5.040834.2411153-6.6501463.0102961-.2543594.0197609-.5490091.028414-.8839492.0067107-.260804-1.7975085-.1967362-5.4126575.1922034.0212554.1967995.1169044 2.4978576.2869471 6.9031743zm14.2218158-7.6995423c.0119637.4535823.0179338.8210657.0179338 1.1024502.0318831.6244077.4304207 8.6383204.4304207 9.0641147 0 .1319555 1.088672.5087767 1.2494155.5427858 1.1863137.0979463 2.2284896-.0006801 3.1265272-.2958794.160744-.0326488.241116-.0986265.241116-.1979332.031883-.2625505.304881-7.7683667.336764-9.3110211.01135-.257149.02169-.5590346.031059-.9056568.016839-.6270696-5.4407838-.2864658-5.4332362.0011398zm-27.8816931 15.3822059h46.6607863v-3.35058h-46.6607863zm-2.0205858 3.793379h50.5564911v-2.5119147h-50.5564911z" fill="#fff" opacity=".3" transform="matrix(-1 0 0 -1 181.542374 136.634708)"/><path d="m149.685512 58v13.8452901h-.685512v-13.8452901z" fill="#fff" opacity=".3"/><path d="m130.501293 58 6.401293 19.2193379-6.058586-.0003379.000049 6.4956592h-.685512l-.000537-6.4956592-6.058.0003379zm0 4.2557072-5.595147 14.2799127 5.251854-.0006199.000537-10.2551505h.685512l-.000049 10.2551505 5.252269.0006199z" fill="#fff" fill-opacity=".3" transform="matrix(-1 0 0 -1 261.002586 141.71466)"/><path d="m55.0755111 58 7.4755111 27.277868-7.1330222-.000868.000267 4.2741057h-.6855118l-.0007552-4.2741057-7.132.000868zm0 2.5932542-6.5774852 24.0008958 6.2339741-.00015.0007552-9.0591139h.6855118l-.000267 5.5051139 1.5426684-1.5444083.48473.4854023-2.0273984 2.029006v2.584l6.234825.00015z" fill="#fff" fill-opacity=".3" transform="matrix(-1 0 0 -1 110.151022 147.551106)"/><path d="m37.3900152 58 6.3900152 17.5265713-5.9160304-.0005713.0413248 7.1784339-.6855077.0023495-.0418171-7.1807834-6.178.0005713zm0 5.1444291-5.6064578 11.6984242 5.3914426-.0008533-.0432275-7.6891739.6855077-.0023495.0437198 7.6915234 5.1353016.0008533z" fill="#fff" fill-opacity=".3" transform="matrix(-1 0 0 -1 74.78003 140.706784)"/><path d="m155.680846 56.7531265v1.8h-129.9906968v-1.8z" fill="#b58f46"/><path d="m149.5 25 5.5 28h-5.315l.000511 4h-.685511v-4h-5zm-2.085004 14.1869283-2.579374 13.1322097 4.164378-.000138v-3.873l-1-.99906.44694-.44694.55306.553v-1.107l-1-.99906.44694-.44694.55306.553v-2.553h.685511l-.000511 2.968.96806-.968.44694.44694-1.104 1.10206.004.00406-.315.31494v1.1l.96806-.968.44694.44694-1.104 1.10206.004.00406-.315.31494v3.451l4.479206.000138-2.555115-13.0073088c-.540147.9906941-1.180613 1.5572502-1.932769 1.6719731-.832168.1269268-1.5756-.4939739-2.261326-1.796874zm2.085004-10.6131912-1.86 9.4622629.0202.0450054.068543.1574192.068409.1513182.068263.1452429c.034093.0711069.068127.1399451.102094.2065291l.067845.1301665c.542018 1.0173554 1.065943 1.4600813 1.543969 1.3871703.644524-.0983063 1.237927-.7456461 1.759183-1.9932352l.032484-.0787564.01801.00814z" fill="#fff"/><path d="m130.445179 11.2709927 6.401293 39.2193379-6.058586-.0003379.000049 6.4956592h-.685512l-.000537-6.4956592-6.058.0003379zm-2.296185 18.3260953-3.298962 20.2095246 5.251854-.0006199v-3.606l-2.540728-2.5449017.48473-.4854023 2.055998 2.059304.000537-5.6781505h.685512l-.000049 2.9411505 1.885206-1.8862466.48473.4854023-2.369887 2.3731741-.000049 6.3416702 5.252268.0006199-2.65185-16.2469945c-1.875561.2080779-3.620641-1.1377591-5.23931-3.9625301zm2.296185-14.0703881-2.117293 12.9672928.043821.0825032c.229613.4398182.460082.8454278.691391 1.2171047l.106818.1691348c1.342215 2.0938418 2.71259 3.049103 4.108204 2.9195375z" fill="#fff"/><path d="m55.0388867 25.4345462 7.4755112 27.277868-7.1330223-.000868.000267 4.2741057h-.6855117l-.0007553-4.2741057-7.132.000868 4.186-15.274868-.0320226-.0305099.0570226-.0604901zm-.0856889 13.5262393c-.8775681 0-1.7542184-.3461345-2.6286995-1.0270205l-3.8630968 14.0949312 6.2339741-.00015.0007553-5.6584221-2.3698873-2.3731741.48473-.4854023 1.884402 1.8869985.0007553-2.4291139h.6855117l-.000267 5.5051139 1.5426684-1.5444084.4847301.4854023-2.0273985 2.0290061v2.584l6.234825.00015-3.9053329-14.2512152c-.8945454.783901-1.8148847 1.1833045-2.7576699 1.1833045zm.0856889-10.9329851-2.5158828 9.1830454c.839006.7138792 1.6485326 1.0634772 2.4301939 1.0634772.8432121 0 1.6926572-.4070327 2.5527889-1.2409252z" fill="#fff"/><path d="m37.072471 2.28004126 6.3900152 47.52657134-5.9000304-.0005713.0253248 7.1784338-.6855077.0023496-.0258171-7.1807834-6.194.0005713zm-2.2700152 22.02200004-3.3364426 24.8208533 5.4084426-.0008533-.02-5.705-2.1518721-2.1549634.48473-.4854023 1.6641421 1.6663657-.018-5.201-2.1308721-2.1334257.48473-.4854023 1.6431421 1.645828-.0162275-4.8361739.6855077-.0023496.0187198 5.5275235.0387452.0383462-.0387452.0376538.021 6.098.0177452.0178084-.0177452.0161916.021 5.956 5.1183016.0008533-2.9395875-21.8715102c-1.5834376.5355782-3.2338384-.4800441-4.9313894-2.9414716zm2.2700152-16.87757093-2.1370152 15.89357093.0277754-.0167198c.0557358.08829.1112724.1748174.1666107.2595869l.1104125.1671966c.018358.0274759.0366942.0547569.0550083.0818431l.1096222.1601811c.0182266.0263078.0364313.0524211.0546141.0783401l.1088355.1531847c.0361913.0502855.0722955.0997954.1083129.1485311l.1077921.1438859c1.4167268 1.8651216 2.6982495 2.523006 3.8609986 2.0610548z" fill="#fff"/><path d="m114.46126 7.35333854-.914644 1.82220947h-46.4674953l-.8170022-1.82220947 24.0517461-6.50118632zm-.960476 3.69543266h-46.3240216v4.7789637h46.3240216zm-5.820642 27.28825.143474 4.5810306c.12886 2.5942168.241115 4.482404.336764 5.6645616 0 .1646042.007971.2713929.023912.320366.015942.0489732.047825.0816219.095649.0979463.047825.0163244.16805.040811.360677.0734598 1.37894.3618572 2.75788.3455328 4.13682-.0489732.705412-9.8191176.705412-20.3109358 0-31.4754548-1.5078-.3278481-3.04682-.3278481-4.617058 0 0 .0979463-.007971.2128972-.023912.3448526-.015942.1319555-.023913.2142576-.023913.2469064-.031883.8543094-.087678 2.0854401-.167386 3.6933921-.079707 1.6079519-.135502 2.7901094-.167385 3.5464726 0 .4924523-.031883 1.5433346-.095649 3.1526469-.063766 1.6093122-.095649 2.8411231-.095649 3.6954326-.031883 1.839214 0 3.8750009.095649 6.1073605zm-39.4930867 2.5139553v.8366248c.031883.327848.0478245.7876515.0478245 1.3794105.031883.197253.0478245.4842901.0478245.8611113s.0159415.6638583.0478245.8611113c0 .197253.0079708.4761279.0239123.8366247.0159415.3604969.0239122.6393718.0239122.8366248.0318831.1646042.0478246.3945059.0478246.6897052 0 .0979463.0079707.245546.0239122.442799s.0239123.361177.0239123.4917721c.031883.1646042.0478245.4598035.0478245.8855979 0 .0979463.0644302.1469194.1932907.1469194.0637661.0326488.2238454.0897841.4802379.1714061.2563925.0816219.4490191.1387572.5778796.171406 1.1863136.0979463 2.2444311-.0006802 3.1743522-.2958795.1288605-.0326487.1932908-.0986265.1932908-.1979331 0-.4598035.031883-1.1495088.095649-2.0691158.1288605-2.8241186.2092322-5.0408341.2411153-6.6501464 0-.2299017.0478245-2.5942168.1434735-7.0929452-.031883-.6244078-.0557953-1.5848258-.0717368-2.881254s-.0239122-2.2731706-.0239122-2.9302271-.0239123-1.6671278-.0717368-3.030214c-.0478245-1.3630861-.0876783-2.3894818-.1195613-3.0791871-.063766-.7876516-.1281963-1.9045116-.1932907-3.35058 0-.1319554-.0318831-.1979332-.0956491-.1979332-.3201585-.1319554-.6728643-.2305819-1.0581174-.2958794-1.1863137-.1646043-2.2603726-.0823022-3.2221767.2469063-.1607436.0326487-.2411153.1149509-.2411153.2469063-.031883.1646042-.0478245.4434791-.0478245.8366247-.031883.2299018-.0478245.5421056-.0478245.9366116-.0318831.197253-.0478246.5094569-.0478246.9366116-.031883.0652975-.0478245.2128972-.0478245.442799 0 .1319554-.0079707.3373706-.0239122.6162455s-.0239123.4679657-.0239123.5672724c0 .3618572-.0159415.6570565-.0478245.8855978 0 .5251011-.031883 1.3460816-.095649 2.4629416 0 .6897053-.0318831 1.6916144-.0956491 3.0057274v7.5357442c.031883.4271548.0478245 1.0842113.0478245 1.9711695 0 .1646042.0079708.4108304.0239123.7386784.0159415.3278481.0239123.5740743.0239123.7386785 0 .5577498.0159415.9849045.0478245 1.2814642zm12.9863487 5.6155885c0 .327848.031883.5577498.0956491.6897052 0 .394506.0159415.7067099.0478245.9366116 0 .3618572.0159415.6570565.0478245.8855979 0 .0979463.031883.1469195.095649.1469195.0637661.0326487.1760208.0734597.3367643.1224329.1607435.0489731.3048813.0979463.4324134.1469194.127532.0489732.2557283.0734598.3845888.0734598 1.1863137.1319554 2.2125481.0333289 3.0787032-.2958795.1607435-.0326488.2411153-.0986265.2411153-.1979332.063766-.919607.095649-1.6093123.095649-2.0691158.1288605-2.8241186.2092322-5.040834.2411153-6.6501463.031883-.7876516.0557952-1.961647.0717367-3.5219861s.0239123-2.7506589.0239123-3.5709592c0-1.1821575-.031883-3.1193179-.095649-5.8114811l-.1434736-6.1073605-.1434735-3.35058c0-.1319555-.0644303-.1979332-.1932908-.1979332-.3201586-.1319554-.6728644-.2305819-1.0581174-.2958795-1.1544307-.1646042-2.2284896-.0823021-3.2221768.2469064-.1288605.0326487-.1932907.1149508-.1932907.2469063l-.0478245.8366247c0 .1319555-.0159415.2958795-.0478245.4917721-.0318831.1958926-.0478246.3434923-.0478246.442799 0 .0993066-.0079707.2469063-.0239122.4427989s-.0239123.3598167-.0239123.4917721v.4427989c-.031883.2625506-.0478245.6563764-.0478245 1.1814774-.031883.197253-.0478245.4924523-.0478245.8855979-.063766 1.0502021-.095649 1.8711826-.095649 2.4629416-.0637661 1.3794105-.0956491 2.3813196-.0956491 3.0057274-.031883.4924522-.0478245 1.1984819-.0478245 2.1180889v3.4974995c0 .197253.0079708.5094569.0239123.9366116s.0239122.755683.0239122.9855847c0 .8543095.0159415 1.511366.0478245 1.9711695v1.4773569c.0318831.2951993.0478246.722354.0478246 1.2814642 0 .394506.0159415.6733809.0478245.8366247 0 .5903986.0159415 1.0502021.0478245 1.3794105 0 .197253.0079707.4842901.0239122.8611114.0159416.3768212.0239123.6638583.0239123.8611113zm19.434688-25.9598533-.143474-2.609861c0-.1319555-.047824-.1979332-.143473-.1979332-.320159-.1319554-.6888063-.2305819-1.1059423-.2958795-1.1544307-.1646042-2.2125481-.0823021-3.1743523.2469064-.1288605.0326487-.1932907.1149508-.1932907.2469063-.1288605 1.5440147-.2251738 3.1370026-.2889398 4.7789637-.1288605 3.6457793-.2092323 6.4209248-.2411153 8.3254363-.031883.0326488-.031883.837305 0 2.4139685v2.3160221c0 .4598035.0159415 1.1495088.0478245 2.0691158s.0478245 1.6093123.0478245 2.0691158c.0318831.6244077.0717368 1.511366.1195613 2.6608747.0478246 1.1495088.0717368 1.9868137.0717368 2.5119148.031883.4598035.0797075 1.11686.1434736 1.9711695.063766.8543094.095649 1.4943614.095649 1.9201557 0 .1319555.0478245.1979332.1434735.1979332.031883 0 .1839916.0489732.4563256.1469195.2723341.0979463.4888729.163924.6496164.1979331 1.1863137.0979464 2.2284896-.0006801 3.1265272-.2958794.160744-.0326488.241116-.0986265.241116-.1979332.031883-.2625505.047824-.6733809.047824-1.2324911s.015942-.9699405.047825-1.232491c.12886-3.0213716.209232-5.3033846.241115-6.846039.031883-.722354.055795-1.7977229.071737-3.2261066.015941-1.4283837.023912-2.5200769.023912-3.2750797 0-.919607-.031883-2.5289193-.095649-4.8279369 0-.8543094-.023912-2.1514179-.071737-3.8913252-.047824-1.7399074-.087678-3.0533402-.119561-3.9402985zm-33.0945653 33.6425169h46.6607863v-3.35058h-46.6607863zm-2.0205858 3.793379h50.5564911v-2.5119147h-50.5564911z" fill="#fff"/><path d="m28.6044211 50.266789.0305039 29.4621832-21.37696023-.0220854-.01499838-29.4621673 1.07194386.0011075 9.65177315 12.6466947 9.5514908-12.626855z" fill="#fff" transform="matrix(.43837115 -.89879405 .89879405 .43837115 -48.334762 52.621908)"/><path d="m27.7537377 51.6344619-9.6945683 12.8413077-9.78722556-12.8492521.01392219 27.0519009 19.49578767.0201419z" fill="#b58f46" transform="matrix(.43837115 -.89879405 .89879405 .43837115 -48.443333 52.799544)"/><path d="m172.72648 50.2667772.030504 29.4621833-21.37696-.0220855-.014998-29.4621672 1.071943.0011075 9.651774 12.6466947 9.55149-12.626855z" fill="#fff" transform="matrix(-.43837115 -.89879405 -.89879405 .43837115 291.513676 182.157962)"/><path d="m171.700091 51.6344505-9.694568 12.8413077-9.787226-12.8492521.013922 27.0519009 19.495788.0201419z" fill="#b58f46" transform="matrix(-.43837115 -.89879405 -.89879405 .43837115 291.545223 182.177674)"/><path d="m169.536539 83.0039701-12.131697-23.1322621-.448456.2162056c-22.268284 10.7357882-44.528473 16.1017308-66.7850222 16.1017308-22.2565493 0-44.5167381-5.3659426-66.7850224-16.1017308l-.4431015-.2136242-12.4864863 23.1285117.4893698.2310945c26.4902762 12.5094754 52.9000742 18.7661044 79.2252404 18.7661044 26.3256152 0 52.6217582-6.2568483 78.8840482-18.7668462z" fill="#fff"/><path d="m11.8759823 82.5371117 11.5063147-21.3130294-.4434574-.2128069c22.4042313 10.8013298 44.8165579 16.2039461 67.2325242 16.2039461l.6724779-.0016208c21.9675753-.1058909 43.9316123-5.400417 65.8879173-15.879905l.223187-.1070494 11.175556 21.3092689.481759-.2282081c-26.12733 12.4457101-52.272836 18.6667159-78.4408972 18.6667159l-.7850829-.001866c-25.6469407-.121937-51.3821285-6.218774-77.2094727-18.2940723z" fill="#b58f46"/><path d="m52.0078088 89.3924457 2.2179297-8.0582304 3.2224846.8823141.3233345-1.1747462-7.7220524-2.1142926-.3233345 1.1747461 3.1695485.8678202-2.2179297 8.0582304zm6.6925061 1.6531378.8166767-4.0805623 5.2823109 1.0516673-.8166767 4.0805622 1.3458117.2679408 1.8764758-9.3758973-1.3458117-.2679407-.8113038 4.0537165-5.2823108-1.0516673.8113038-4.0537164-1.3458117-.2679407-1.8764759 9.3758972zm9.9339264 1.8655231 1.5383574-2.669195 4.0467349.4855835.9278345 2.965123 1.3966005.1675835-3.1063547-10.0577021-.9605886-.1152648-5.2391845 9.0562884zm5.1723454-3.4601298-2.9567053-.3547865 1.8385815-3.2673452zm6.0053563 4.603574.2767325-7.3519674 6.1276882 7.5917737 1.1794008.0441613.3596235-9.554138-1.3028265-.0487829-.2790493 7.4135187-6.1802272-7.655379-1.110831-.0415939-.3596235 9.5541381zm11.9052037.2446918-.212364-4.717509 5.099912 4.4986404 1.8782443-.0841094-5.4016679-4.7934113 3.9503268-4.7120968-1.7137265.0767422-3.8340173 4.549321-.1966675-4.3688235-1.3709812.0613937.42996 9.5512464zm15.2341363-1.2435805-.671542-5.0130642 2.911574-4.9312655-1.645933.2193342-2.139719 3.6131872-2.981716-2.9307136-1.645933.2193341 4.107446 3.9959232.671542 5.0130641zm8.865474-1.4960445c1.481787-.3106775 2.614238-1.0201688 3.397355-2.1284742.783116-1.1083053 1.029279-2.3522981.73849-3.7319782s-1.015007-2.4260466-2.172653-3.1390995c-1.157647-.713053-2.461696-.9175258-3.912146-.6134186s-2.553746 1.0133136-3.309888 2.1276191c-.756141 1.1143054-.986935 2.3702282-.692382 3.7677683.287025 1.3618202.996992 2.396022 2.129903 3.1026054 1.132911.7065835 2.406684.9115761 3.821321.6149777zm-.172439-1.2506384c-1.04307.2186944-1.982129.0659094-2.817177-.4583548s-1.358913-1.2909396-1.571593-2.300026c-.219268-1.0403413-.053657-1.9678928.496833-2.7826546.55049-.8147617 1.362939-1.3347748 2.437346-1.5600394 1.020687-.2140014 1.952618-.0562252 2.795793.4733286.843174.5295538 1.36922 1.289944 1.578136 2.2811705.214563 1.0180164.043534 1.9420415-.513086 2.7720754s-1.358704 1.3548673-2.406252 1.5745003zm11.590253-1.5456621c1.175881-.3459678 2.035451-.9389922 2.578709-1.7790733.163725-.2527201.286004-.5205983.366837-.8036346.080833-.2830364.119737-.6191445.116713-1.0083245-.003025-.3891799-.108729-.9360489-.317113-1.6406069l-1.539584-5.2054145-1.322866.3892137 1.539583 5.2054146c.213561.7220625.30731 1.2486645.281245 1.5798058-.026065.3311414-.136174.6441977-.330328.9391691-.371043.5515643-.947062.9422387-1.728057 1.1720233-.548453.1613655-1.054602.1996857-1.518448.1149604s-.844322-.2665234-1.141427-.5453943c-.297104-.2788709-.573146-.8493559-.828126-1.7114548l-1.539583-5.2054146-1.322867.3892138 1.535701 5.1922862c.218738.7395671.428594 1.2676851.629566 1.5843541s.412414.5719848.634327.7659473c.221912.1939626.471034.3549457.747365.4829495.907749.4084089 1.960533.4364021 3.158353.0839797z" fill="#fff"/></g></g></svg>
